<svg xmlns="http://www.w3.org/2000/svg" version="1.1" xmlns:xlink="http://www.w3.org/1999/xlink" xmlns:svgjs="http://svgjs.dev/svgjs" width="2000" height="1247" viewBox="0 0 2000 1247"><g transform="matrix(1,0,0,1,-1.2121212121212466,182.331022614812)"><svg viewBox="0 0 396 247" data-background-color="#ffffff" preserveAspectRatio="xMidYMid meet" height="1247" width="2000" xmlns="http://www.w3.org/2000/svg" xmlns:xlink="http://www.w3.org/1999/xlink"><g id="tight-bounds" transform="matrix(1,0,0,1,0.2400000000000091,-0.09999999999999432)"><svg viewBox="0 0 395.52 247.2" height="247.2" width="395.52"><g><svg></svg></g><g><svg viewBox="0 0 395.52 247.2" height="247.2" width="395.52"><g transform="matrix(1,0,0,1,84.91562398209732,47.215199999999996)"><svg viewBox="0 0 225.68875203580535 152.7696" height="152.7696" width="225.68875203580535"><g><svg viewBox="0 0 244.43135999999998 165.45654472284807" height="152.7696" width="225.68875203580535"><g transform="matrix(1,0,0,1,0,100.74569264488257)"><svg viewBox="0 0 244.43135999999998 64.7108520779655" height="64.7108520779655" width="244.43135999999998"><g id="textblocktransform"><svg viewBox="0 0 244.43135999999998 64.7108520779655" height="64.7108520779655" width="244.43135999999998" id="textblock"><g><svg viewBox="0 0 244.43135999999998 47.33095008900008" height="47.33095008900008" width="244.43135999999998"><g transform="matrix(1,0,0,1,0,0)"><svg width="244.43135999999998" viewBox="1.1836099999999996 -33.88202 291.75291999999996 56.49415" height="47.33095008900008" data-palette-color="#375ce1"><path d="M7.722 22.612l-5.36-29.822c-0.209-1.161-0.601-2.876-1.178-5.143v0l3.505-1.128 0.904 2.541c0.551-0.668 1.131-1.28 1.742-1.838 0.617-0.565 1.31-1.075 2.082-1.532 0.771-0.457 1.626-0.77 2.565-0.938v0c1.325-0.238 2.616-0.236 3.872 0.005 1.262 0.24 2.43 0.782 3.502 1.626 1.066 0.845 2.002 2.021 2.809 3.529 0.806 1.508 1.418 3.423 1.835 5.746v0c0.425 2.362 0.436 4.423 0.034 6.181-0.402 1.759-1.069 3.247-2.002 4.465-0.933 1.218-2.06 2.179-3.383 2.883-1.329 0.706-2.719 1.19-4.169 1.451v0c-1.561 0.247-3.18 0.338-4.858 0.273v0l1.891 10.522zM13.87 7.242v0c1.358-0.244 2.476-0.696 3.353-1.354 0.884-0.66 1.564-1.473 2.041-2.44 0.475-0.973 0.761-2.043 0.855-3.212 0.088-1.167 0.019-2.381-0.207-3.64v0c-0.203-1.129-0.511-2.242-0.925-3.339-0.413-1.091-0.932-2.041-1.559-2.85-0.632-0.801-1.385-1.414-2.261-1.839-0.877-0.432-1.883-0.546-3.018-0.341v0c-0.84 0.151-1.603 0.447-2.289 0.889-0.693 0.443-1.331 0.94-1.916 1.492-0.584 0.559-1.131 1.169-1.642 1.829v0l2.674 14.882c0.378 0.068 0.797 0.118 1.257 0.15 0.454 0.04 0.987 0.046 1.598 0.018 0.611-0.029 1.291-0.11 2.039-0.245zM31.601 7.108l-3.086-20.56c-0.113-0.752-0.371-1.909-0.774-3.473v0l3.537-1.027 0.918 3.492 0.05-0.007c0.475-0.833 0.944-1.568 1.408-2.203 0.472-0.63 0.977-1.195 1.515-1.694 0.539-0.499 1.085-0.79 1.639-0.873v0c0.748-0.139 1.802-0.213 3.162-0.222v0l-0.317 3.88c-1.103-0.03-1.863 0.003-2.281 0.1v0c-0.554 0.083-1.098 0.431-1.633 1.044-0.543 0.607-0.997 1.238-1.364 1.893v0c-0.472 0.806-0.917 1.705-1.334 2.698v0l2.457 16.367zM48.224-7.581v0c0.385 3.163 1.38 5.433 2.984 6.81 1.605 1.376 3.615 1.917 6.031 1.623v0c2.382-0.29 4.149-1.281 5.299-2.972 1.15-1.698 1.538-4.079 1.166-7.143v0c-0.397-3.263-1.404-5.605-3.021-7.027-1.611-1.429-3.641-1.995-6.09-1.696v0c-2.442 0.297-4.212 1.315-5.31 3.053-1.091 1.738-1.445 4.189-1.059 7.352zM44.058-7.124v0c-0.301-2.475-0.162-4.584 0.419-6.327 0.58-1.743 1.416-3.184 2.506-4.324 1.084-1.139 2.292-1.998 3.625-2.577 1.34-0.579 2.628-0.945 3.866-1.095v0c1.171-0.143 2.475-0.11 3.911 0.098 1.429 0.209 2.788 0.722 4.075 1.539 1.295 0.816 2.431 1.984 3.409 3.503 0.977 1.52 1.617 3.52 1.919 6.003v0c0.313 2.574 0.176 4.757-0.412 6.547-0.595 1.792-1.433 3.26-2.516 4.407-1.09 1.14-2.312 1.997-3.666 2.571-1.346 0.58-2.625 0.944-3.836 1.092v0c-1.238 0.151-2.565 0.114-3.983-0.11-1.417-0.224-2.764-0.748-4.039-1.573-1.275-0.819-2.394-2.012-3.358-3.581-0.97-1.568-1.61-3.625-1.92-6.173zM75.604 12.951l-2.617-30.186c-0.102-1.176-0.337-2.918-0.704-5.229v0l3.594-0.804 0.668 2.613c0.609-0.615 1.243-1.172 1.903-1.671 0.665-0.506 1.403-0.951 2.213-1.336 0.81-0.385 1.69-0.618 2.639-0.701v0c1.342-0.116 2.627 0.003 3.856 0.359 1.235 0.355 2.349 1.001 3.339 1.938 0.985 0.938 1.81 2.195 2.475 3.771 0.665 1.575 1.1 3.538 1.304 5.889v0c0.207 2.391 0.031 4.444-0.53 6.159-0.561 1.715-1.361 3.136-2.401 4.263-1.04 1.127-2.251 1.982-3.632 2.563-1.388 0.582-2.816 0.937-4.284 1.064v0c-1.577 0.103-3.198 0.046-4.863-0.17v0l0.923 10.65zM83.129-1.794v0c1.375-0.119 2.529-0.467 3.463-1.043 0.94-0.577 1.692-1.324 2.254-2.243 0.562-0.925 0.944-1.966 1.145-3.12 0.194-1.154 0.236-2.369 0.126-3.645v0c-0.099-1.142-0.305-2.279-0.617-3.409-0.312-1.124-0.742-2.117-1.292-2.98-0.556-0.855-1.251-1.534-2.084-2.037-0.834-0.51-1.825-0.715-2.974-0.616v0c-0.85 0.074-1.637 0.299-2.361 0.677-0.73 0.378-1.412 0.815-2.044 1.311-0.632 0.503-1.233 1.06-1.802 1.672v0l1.306 15.063c0.37 0.102 0.783 0.19 1.237 0.265 0.449 0.082 0.979 0.136 1.59 0.163 0.611 0.027 1.296 0.008 2.053-0.058zM114.156-6.765l-0.296-5.612c-0.651 0.068-1.271 0.134-1.862 0.198-0.591 0.065-1.171 0.135-1.742 0.212-0.57 0.077-1.083 0.161-1.538 0.252v0c-2.348 0.424-3.995 1.029-4.942 1.813-0.94 0.791-1.373 1.875-1.3 3.253v0c0.061 1.152 0.459 1.995 1.195 2.53 0.729 0.536 1.67 0.773 2.821 0.712v0c1.571-0.083 2.958-0.427 4.162-1.03 1.203-0.604 2.371-1.38 3.502-2.328zM114.93-0.647l-0.643-2.68c-1.491 0.967-2.888 1.758-4.19 2.374-1.296 0.609-2.717 0.955-4.262 1.036v0c-2.197 0.116-3.973-0.324-5.327-1.321-1.348-0.997-2.087-2.727-2.216-5.191v0c-0.067-1.278 0.2-2.411 0.802-3.397 0.609-0.987 1.429-1.828 2.46-2.523 1.031-0.695 2.21-1.258 3.536-1.688 1.326-0.43 2.692-0.733 4.098-0.908v0c0.589-0.098 1.358-0.195 2.308-0.292 0.943-0.103 1.676-0.185 2.2-0.246v0c-0.06-1.145-0.148-2.165-0.262-3.061-0.108-0.902-0.345-1.664-0.711-2.285-0.36-0.622-0.868-1.079-1.525-1.372-0.657-0.299-1.574-0.418-2.752-0.355v0c-0.952 0.05-1.868 0.159-2.747 0.325-0.879 0.16-1.662 0.325-2.347 0.494v0c-0.81 0.203-1.557 0.423-2.238 0.659v0l-0.959-3.354c0.808-0.243 1.684-0.469 2.628-0.679v0c0.81-0.21 1.751-0.4 2.824-0.57 1.079-0.177 2.241-0.299 3.486-0.364v0c1.678-0.089 3.045 0.086 4.103 0.524 1.058 0.438 1.895 1.062 2.512 1.87 0.617 0.809 1.06 1.74 1.329 2.794 0.269 1.054 0.435 2.17 0.498 3.349v0l0.623 11.813c0.024 0.459 0.06 0.941 0.106 1.447 0.04 0.505 0.1 1.003 0.179 1.492 0.073 0.49 0.156 0.996 0.251 1.519v0zM125.062-1.407l-0.536-20.783c-0.02-0.76-0.133-1.941-0.342-3.543v0l3.636-0.584 0.483 3.579 0.05-0.001c0.574-0.768 1.13-1.44 1.668-2.014 0.546-0.568 1.116-1.066 1.712-1.494 0.596-0.429 1.174-0.65 1.734-0.665v0c0.759-0.046 1.814 0.01 3.165 0.168v0l-0.792 3.812c-1.091-0.165-1.85-0.226-2.275-0.182v0c-0.56 0.014-1.143 0.293-1.749 0.836-0.613 0.536-1.142 1.106-1.587 1.711v0c-0.568 0.742-1.12 1.579-1.655 2.514v0l0.426 16.544zM143.075-33.384l3.939-0.498 0.015 7.39 7.15-0.014 0.006 3.2-7.15 0.014 0.025 13.15c0.002 1.087 0.031 1.99 0.086 2.71 0.048 0.727 0.156 1.303 0.323 1.729 0.161 0.426 0.391 0.729 0.692 0.909 0.294 0.179 0.671 0.269 1.13 0.268v0c1.247-0.036 2.689-0.499 4.327-1.389v0l1.196 3.008c-1.085 0.722-2.094 1.207-3.027 1.456-0.94 0.248-1.869 0.374-2.789 0.375v0c-2.167 0.004-3.685-0.61-4.554-1.841-0.876-1.225-1.316-3.267-1.322-6.127v0l-0.027-14.24-4.53 0.008-0.006-3.2 4.53-0.008zM158.981-1.627l0.472-19.854c0.05-0.686 0.002-2.181-0.143-4.485v0l3.66-0.403 0.465 3.162c1.002-0.63 1.992-1.18 2.97-1.65 0.978-0.47 1.982-0.883 3.011-1.238 1.029-0.356 2.02-0.522 2.972-0.5v0c1.346 0.032 2.466 0.215 3.358 0.55 0.899 0.335 1.616 0.869 2.153 1.602 0.543 0.74 0.923 1.702 1.141 2.888 0.218 1.192 0.306 2.675 0.265 4.447v0l-0.38 15.956-3.939-0.094 0.369-15.515c0.023-0.986 0.028-1.867 0.013-2.641-0.015-0.767-0.139-1.427-0.373-1.979-0.234-0.546-0.6-0.971-1.1-1.277-0.506-0.312-1.219-0.479-2.138-0.501v0c-0.853-0.02-1.757 0.148-2.713 0.506-0.962 0.357-1.909 0.771-2.841 1.242-0.931 0.465-1.881 1.016-2.85 1.653v0l-0.433 18.225zM192.131-0.989l-8.423-24.698 4.182 0.255 3.942 11.441c0.393 1.113 0.746 2.22 1.06 3.321 0.313 1.108 0.59 2.096 0.831 2.966v0c0.297 1.04 0.55 2.044 0.758 3.012v0l0.05 0.003c0.351-0.934 0.737-1.899 1.158-2.895v0c0.345-0.834 0.75-1.781 1.215-2.842 0.458-1.054 0.933-2.11 1.426-3.169v0l4.952-10.899 4.132 0.252-13.496 28.792c-0.533 1.183-1.196 2.195-1.989 3.035-0.793 0.84-1.55 1.535-2.271 2.086v0c-0.867 0.635-1.758 1.172-2.673 1.61v0l-1.709-3.51c0.712-0.284 1.376-0.654 1.991-1.111v0c0.552-0.394 1.11-0.894 1.674-1.501 0.565-0.607 1.037-1.343 1.417-2.208v0zM213.131-11.152v0c-0.294 3.173 0.198 5.602 1.475 7.287 1.277 1.685 3.127 2.639 5.55 2.863v0c2.39 0.221 4.326-0.373 5.809-1.782 1.483-1.416 2.367-3.661 2.652-6.734v0c0.303-3.273-0.185-5.775-1.465-7.507-1.272-1.738-3.136-2.721-5.592-2.948v0c-2.45-0.227-4.395 0.393-5.836 1.86-1.435 1.467-2.299 3.788-2.593 6.961zM208.964-11.588v0c0.23-2.483 0.813-4.514 1.749-6.095 0.936-1.58 2.058-2.812 3.365-3.696 1.3-0.884 2.663-1.467 4.089-1.75 1.432-0.283 2.769-0.366 4.01-0.252v0c1.175 0.109 2.442 0.417 3.801 0.925 1.352 0.507 2.572 1.296 3.657 2.367 1.093 1.072 1.955 2.454 2.589 4.146 0.633 1.692 0.835 3.783 0.605 6.272v0c-0.239 2.582-0.835 4.686-1.79 6.312-0.961 1.625-2.091 2.883-3.392 3.774-1.307 0.883-2.683 1.462-4.128 1.737-1.439 0.282-2.766 0.367-3.98 0.254v0c-1.241-0.115-2.531-0.432-3.869-0.951-1.338-0.519-2.543-1.317-3.615-2.393-1.073-1.07-1.913-2.474-2.522-4.21-0.616-1.737-0.805-3.884-0.569-6.44zM237.034 3.562l2.518-20.637c0.092-0.754 0.153-1.939 0.182-3.554v0l3.682-0.044-0.047 3.61 0.049 0.006c0.68-0.676 1.329-1.258 1.946-1.747 0.623-0.481 1.26-0.891 1.913-1.227 0.652-0.337 1.256-0.471 1.812-0.404v0c0.758 0.066 1.793 0.276 3.107 0.631v0l-1.343 3.655c-1.055-0.324-1.797-0.495-2.224-0.514v0c-0.556-0.068-1.173 0.122-1.853 0.57-0.685 0.44-1.292 0.927-1.82 1.461v0c-0.67 0.65-1.339 1.398-2.007 2.243v0l-2.004 16.428zM268.024-17.162l3.984 0.027-3.852 24.58c-0.457 2.918-1.371 5.241-2.743 6.97-1.365 1.736-3.286 3.075-5.761 4.016v0l-1.454-3.77c1.067-0.433 1.961-0.951 2.683-1.554 0.729-0.601 1.326-1.27 1.792-2.006 0.461-0.744 0.822-1.521 1.084-2.331 0.261-0.803 0.458-1.629 0.591-2.478v0zM268.351-24.348v0c0.117-0.744 0.464-1.327 1.043-1.749 0.587-0.428 1.252-0.583 1.997-0.467v0c0.777 0.122 1.396 0.479 1.856 1.07 0.455 0.584 0.624 1.248 0.508 1.993v0c-0.118 0.751-0.482 1.335-1.095 1.752-0.619 0.416-1.316 0.563-2.093 0.441v0c-0.744-0.117-1.331-0.465-1.76-1.045-0.422-0.579-0.574-1.244-0.456-1.995zM292.937-12.409l-1.287 3.327c-1.285-0.66-2.44-1.154-3.465-1.484-1.024-0.336-1.972-0.581-2.846-0.735v0c-1.136-0.2-2.133-0.092-2.992 0.326-0.852 0.418-1.355 1.064-1.509 1.937v0c-0.104 0.781 0.118 1.503 0.664 2.168 0.553 0.666 1.218 1.291 1.995 1.875 0.783 0.591 1.653 1.239 2.612 1.943 0.96 0.697 1.843 1.452 2.647 2.264 0.812 0.807 1.431 1.714 1.856 2.723 0.418 1.008 0.533 2.145 0.343 3.411v0c-0.272 1.353-0.769 2.427-1.491 3.22-0.721 0.787-1.575 1.371-2.563 1.752-0.98 0.376-2.007 0.577-3.082 0.604-1.068 0.028-2.055-0.037-2.961-0.196v0c-1.169-0.206-2.365-0.484-3.589-0.836-1.219-0.343-2.504-0.851-3.854-1.522v0l1.344-3.368c1.389 0.644 2.666 1.16 3.83 1.548 1.164 0.388 2.133 0.65 2.908 0.787v0c0.584 0.103 1.17 0.139 1.758 0.107 0.593-0.024 1.138-0.118 1.633-0.281 0.496-0.163 0.912-0.415 1.25-0.755 0.344-0.339 0.559-0.751 0.645-1.237v0c0.127-0.912-0.043-1.734-0.51-2.465-0.473-0.733-1.125-1.434-1.955-2.102-0.838-0.662-1.737-1.338-2.699-2.029-0.963-0.684-1.845-1.439-2.647-2.263-0.809-0.826-1.441-1.753-1.897-2.782-0.447-1.033-0.551-2.23-0.312-3.588v0c0.17-0.965 0.572-1.785 1.205-2.459 0.64-0.673 1.398-1.189 2.274-1.549 0.884-0.366 1.826-0.602 2.826-0.71 1.007-0.107 1.964-0.08 2.87 0.079v0c0.939 0.165 1.976 0.426 3.111 0.782 1.137 0.349 2.432 0.852 3.888 1.508z" opacity="1" transform="matrix(1,0,0,1,0,0)" fill="#375ce1" class="wordmark-text-0" data-fill-palette-color="primary" id="text-0"></path></svg></g></svg></g><g transform="matrix(1,0,0,1,73.121641344,51.281189561103346)"><svg viewBox="0 0 98.18807731199999 13.429662516862157" height="13.429662516862157" width="98.18807731199999"><g transform="matrix(1,0,0,1,0,0)"><svg width="98.18807731199999" viewBox="0.85 -37.9 281.82 38.55" height="13.429662516862157" data-palette-color="#375ce1"><path d="M5.45-32.15L9.45-32.65 9.45-25.15 16.7-25.15 16.7-21.9 9.45-21.9 9.45-8.55Q9.45-6.9 9.53-5.8 9.6-4.7 9.85-4.05 10.1-3.4 10.55-3.13 11-2.85 11.7-2.85L11.7-2.85Q13.6-2.9 16.1-4.25L16.1-4.25 17.3-1.2Q15.65-0.1 14.23 0.28 12.8 0.65 11.4 0.65L11.4 0.65Q8.1 0.65 6.78-1.23 5.45-3.1 5.45-7.45L5.45-7.45 5.45-21.9 0.85-21.9 0.85-25.15 5.45-25.15 5.45-32.15ZM21.85 0L21.85-21.1Q21.85-22.25 21.6-24.7L21.6-24.7 25.3-25.2 25.7-21.55 25.75-21.55Q26.65-22.7 27.5-23.55 28.35-24.4 29.27-25.03 30.2-25.65 31.05-25.65L31.05-25.65Q32.2-25.7 34.25-25.4L34.25-25.4 33.35-21.55Q31.7-21.85 31.05-21.8L31.05-21.8Q30.2-21.8 29.25-21 28.3-20.2 27.6-19.3L27.6-19.3Q26.7-18.2 25.85-16.8L25.85-16.8 25.85 0 21.85 0ZM52.3-5.85L52.3-11.55Q51.3-11.5 50.4-11.45 49.5-11.4 48.62-11.33 47.75-11.25 47.05-11.15L47.05-11.15Q43.45-10.7 41.95-9.58 40.45-8.45 40.45-6.35L40.45-6.35Q40.45-4.6 41.52-3.73 42.59-2.85 44.34-2.85L44.34-2.85Q46.75-2.85 48.62-3.68 50.5-4.5 52.3-5.85L52.3-5.85ZM52.75 0.4L52.25-2.35Q49.9-1 47.87-0.18 45.84 0.65 43.5 0.65L43.5 0.65Q40.15 0.65 38.17-0.98 36.2-2.6 36.2-6.35L36.2-6.35Q36.2-8.3 37.2-9.75 38.2-11.2 39.82-12.18 41.45-13.15 43.5-13.7 45.55-14.25 47.7-14.4L47.7-14.4Q48.59-14.5 50.05-14.58 51.5-14.65 52.3-14.7L52.3-14.7Q52.3-16.45 52.2-17.82 52.09-19.2 51.59-20.18 51.09-21.15 50.12-21.65 49.15-22.15 47.34-22.15L47.34-22.15Q45.9-22.15 44.55-21.98 43.2-21.8 42.15-21.6L42.15-21.6Q40.9-21.35 39.84-21.05L39.84-21.05 39.05-24.5Q40.3-24.8 41.75-25.05L41.75-25.05Q43-25.3 44.65-25.48 46.3-25.65 48.2-25.65L48.2-25.65Q50.75-25.65 52.32-24.9 53.9-24.15 54.77-22.88 55.65-21.6 55.97-19.98 56.3-18.35 56.3-16.55L56.3-16.55 56.3-4.55Q56.3-3.85 56.32-3.08 56.34-2.3 56.42-1.55 56.5-0.8 56.59 0L56.59 0 52.75 0.4ZM69.29 0L60.04-25.15 64.44-25.15 70.54-7.4 71.64-3.45 71.69-3.45 72.84-7.4 79.34-25.15 83.54-25.15 73.79 0 69.29 0ZM105.19-3.95L105.94-0.6Q104.79-0.25 103.57 0 102.34 0.25 100.87 0.45 99.39 0.65 97.79 0.65L97.79 0.65Q95.29 0.65 93.14-0.05 90.99-0.75 89.39-2.3 87.79-3.85 86.87-6.33 85.94-8.8 85.94-12.4L85.94-12.4Q85.94-15.65 86.84-18.13 87.74-20.6 89.32-22.28 90.89-23.95 93.02-24.8 95.14-25.65 97.64-25.65L97.64-25.65Q100.09-25.65 101.89-24.7 103.69-23.75 104.87-22.13 106.04-20.5 106.62-18.32 107.19-16.15 107.19-13.75L107.19-13.75 106.44-11.55 90.29-11.55Q90.29-10 90.69-8.45 91.09-6.9 92.07-5.65 93.04-4.4 94.62-3.63 96.19-2.85 98.54-2.85L98.54-2.85Q100.04-2.85 101.29-3.03 102.54-3.2 103.47-3.43 104.39-3.65 105.19-3.95L105.19-3.95ZM90.44-14.75L103.04-14.75Q103.04-15.1 102.89-16.3 102.74-17.5 102.19-18.8 101.64-20.1 100.49-21.13 99.34-22.15 97.44-22.15L97.44-22.15Q95.34-22.15 93.99-21.28 92.64-20.4 91.84-19.2 91.04-18 90.74-16.75 90.44-15.5 90.44-14.75L90.44-14.75ZM112.64 0L112.64-37.45 116.64-37.9 116.64 0 112.64 0ZM139.38 0L132.58-25.15 136.78-25.15 139.73-13.8Q140.13-12.35 140.46-10.73 140.78-9.1 141.08-7.7L141.08-7.7Q141.38-6.05 141.73-4.45L141.73-4.45 141.78-4.45Q142.13-6.05 142.58-7.7L142.58-7.7Q142.98-9.1 143.43-10.73 143.88-12.35 144.33-13.8L144.33-13.8 147.88-25.15 153.23-25.15 156.08-13.8Q156.43-12.35 156.81-10.73 157.18-9.1 157.43-7.7L157.43-7.7Q157.73-6.05 158.03-4.45L158.03-4.45 158.08-4.45Q158.53-6.1 159.03-7.75L159.03-7.75Q159.43-9.15 159.93-10.78 160.43-12.4 160.88-13.8L160.88-13.8 164.38-25.15 168.53-25.15 160.28 0 155.83 0 152.23-13.8Q151.73-15.7 151.41-17.23 151.08-18.75 150.83-19.8L150.83-19.8Q150.58-21.05 150.38-22L150.38-22 150.28-22Q150.08-21.05 149.78-19.8L149.78-19.8Q149.53-18.75 149.08-17.23 148.63-15.7 148.08-13.8L148.08-13.8 143.83 0 139.38 0ZM172.78 0L172.78-25.2 176.78-25.65 176.78 0 172.78 0ZM172.13-32.35L172.13-32.35Q172.13-33.5 172.91-34.27 173.68-35.05 174.83-35.05L174.83-35.05Q176.03-35.05 176.86-34.27 177.68-33.5 177.68-32.35L177.68-32.35Q177.68-31.2 176.86-30.43 176.03-29.65 174.83-29.65L174.83-29.65Q173.68-29.65 172.91-30.43 172.13-31.2 172.13-32.35ZM185.83-32.15L189.83-32.65 189.83-25.15 197.08-25.15 197.08-21.9 189.83-21.9 189.83-8.55Q189.83-6.9 189.9-5.8 189.98-4.7 190.23-4.05 190.48-3.4 190.93-3.13 191.38-2.85 192.08-2.85L192.08-2.85Q193.98-2.9 196.48-4.25L196.48-4.25 197.68-1.2Q196.03-0.1 194.6 0.28 193.18 0.65 191.78 0.65L191.78 0.65Q188.48 0.65 187.15-1.23 185.83-3.1 185.83-7.45L185.83-7.45 185.83-21.9 181.23-21.9 181.23-25.15 185.83-25.15 185.83-32.15ZM202.17 0L202.17-37.45 206.17-37.9 206.17-22Q207.67-23 209.15-23.75 210.63-24.5 212.17-25.08 213.72-25.65 215.17-25.65L215.17-25.65Q217.22-25.65 218.6-25.18 219.97-24.7 220.82-23.6 221.67-22.5 222.05-20.7 222.42-18.9 222.42-16.2L222.42-16.2 222.42 0 218.42 0 218.42-15.75Q218.42-17.25 218.38-18.43 218.32-19.6 217.95-20.43 217.57-21.25 216.8-21.7 216.02-22.15 214.63-22.15L214.63-22.15Q213.32-22.15 211.82-21.58 210.32-21 208.97-20.25 207.63-19.5 206.17-18.5L206.17-18.5 206.17 0 202.17 0ZM256.27 0.4L255.97-2.75 255.87-2.75Q255.42-2.4 254.57-1.83 253.72-1.25 252.62-0.7 251.52-0.15 250.19 0.25 248.87 0.65 247.52 0.65L247.52 0.65Q245.67 0.65 244.37 0.18 243.07-0.3 242.27-1.4 241.47-2.5 241.12-4.3 240.77-6.1 240.77-8.8L240.77-8.8 240.77-25.15 244.77-25.15 244.77-9.4Q244.77-7.9 244.82-6.7 244.87-5.5 245.17-4.65 245.47-3.8 246.14-3.33 246.82-2.85 248.07-2.85L248.07-2.85Q249.37-2.85 250.77-3.4 252.17-3.95 253.32-4.65L253.32-4.65Q254.67-5.45 255.97-6.45L255.97-6.45 255.97-25.15 259.97-25.15 259.97-3.25Q260.02-1.45 260.22 0L260.22 0 256.27 0.4ZM281.52-24.6L280.82-21.05Q278.72-21.7 277.09-21.93 275.47-22.15 274.12-22.15L274.12-22.15Q272.37-22.15 271.19-21.3 270.02-20.45 270.02-19.1L270.02-19.1Q270.07-17.9 271.07-17.05 272.07-16.2 273.39-15.53 274.72-14.85 276.34-14.05 277.97-13.25 279.39-12.25 280.82-11.25 281.72-9.85 282.62-8.45 282.67-6.5L282.67-6.5Q282.62-4.4 281.74-3.03 280.87-1.65 279.49-0.83 278.12 0 276.52 0.33 274.92 0.65 273.52 0.65L273.52 0.65Q271.72 0.65 269.79 0.45 267.87 0.25 265.67-0.4L265.67-0.4 266.42-4Q268.67-3.4 270.52-3.13 272.37-2.85 273.57-2.85L273.57-2.85Q274.47-2.85 275.34-3.05 276.22-3.25 276.92-3.63 277.62-4 278.04-4.6 278.47-5.2 278.47-5.95L278.47-5.95Q278.42-7.35 277.52-8.33 276.62-9.3 275.19-10.08 273.77-10.85 272.14-11.63 270.52-12.4 269.09-13.43 267.67-14.45 266.72-15.88 265.77-17.3 265.77-19.4L265.77-19.4Q265.77-20.9 266.54-22.08 267.32-23.25 268.54-24.03 269.77-24.8 271.24-25.23 272.72-25.65 274.12-25.65L274.12-25.65Q275.57-25.65 277.37-25.43 279.17-25.2 281.52-24.6L281.52-24.6Z" opacity="1" transform="matrix(1,0,0,1,0,0)" fill="#375ce1" class="slogan-text-1" data-fill-palette-color="secondary" id="text-1"></path></svg></g></svg></g></svg></g></svg></g><g transform="matrix(1,0,0,1,46.68638976,0)"><svg viewBox="0 0 151.05858048 86.45372623481296" height="86.45372623481296" width="151.05858048"><g><svg xmlns="http://www.w3.org/2000/svg" xmlns:xlink="http://www.w3.org/1999/xlink" xml:space="preserve" version="1.1" style="shape-rendering:geometricPrecision;text-rendering:geometricPrecision;image-rendering:optimizeQuality;" viewBox="22 194 802 459" x="0" y="0" fill-rule="evenodd" clip-rule="evenodd" height="86.45372623481296" width="151.05858048" class="icon-icon-0" data-fill-palette-color="accent" id="icon-0"><g fill="#0737e4" data-fill-palette-color="accent"><path class="" d="M403 194c46 0 88 15 122 40l-7 5c-19-13-40-24-64-30 18 11 32 26 44 44l-7 5c-18-28-42-49-74-54 13 17 20 54 24 88l-8 5c-5-43-15-94-30-94-20 0-30 92-33 135l-8-4c3-41 10-105 27-130-49 8-80 55-97 103l-8-3c13-38 35-74 69-95-46 13-85 41-111 79l-8-4c36-54 99-90 169-90z m361 292l60-50-28-3-61 43 29 10z m-391-139l-266-104c-18-5-71-8-85-3 5 9 28 33 36 39l282 116 33 238 27 20-2-6 39-205c59 18 117 37 176 53l107 21c5 2 11 1 4-4l-98-63c-53-23-107-44-161-65l129-171 18-14-32 7-207 141z m29 94c-6-2-3-10 2-8l24 8c6 2 3 10-3 8l-23-8z m-8 96c-5-1-3-10 3-8l15 5c5 1 3 10-3 8l-15-5z m-1 27c-6-1-3-10 2-8l13 4c5 2 3 10-3 8l-12-4z m2-54c-5-1-3-10 3-8l19 6c5 1 3 10-3 8l-19-6z m1-31c-5-2-3-10 3-9l23 7c5 2 3 10-3 9l-23-7z m64-141c-5-3-1-11 4-8l21 12c5 3 1 11-4 8l-21-12z m-25 30c-5-2-1-10 5-7l22 12c5 2 1 10-4 7l-23-12z m67-73c-5-2-1-10 4-7l14 8c5 3 1 10-4 8l-14-9z m19-20c-5-2-1-10 4-7l12 7c5 2 1 10-4 7l-12-7z m-39 40c-5-3 0-10 5-7l17 10c5 2 1 10-4 7l-18-10z m211 167l29 18c20 0 39 0 59 0-19-6-38-12-56-18l-32 0z m32 44l7 52 20 7 6-76-25 0c5 8 0 18-8 17z m-164-258c29 36 47 81 47 131 0 11-1 22-3 33l-8-3c1-6 2-11 2-17-5 4-12 7-19 10l-12-5c16-4 32-11 32-18 0-14-51-23-63-25 1 10 1 20 1 31l-9-3c1-10 0-20-1-30-12-2-26-4-41-5l6-8c12 1 24 3 34 5-1-13-4-27-7-40l6-9c5 17 8 34 10 50 19 3 48 9 63 20-3-41-18-79-43-110l5-7z m23 227c-33 61-96 104-170 108l7-36c4-15 7-34 10-53l12-63 3 1c-3 41-9 114-29 142 55-10 87-66 102-119l8 3c-12 44-35 87-73 110 53-14 97-49 122-96l8 3z m-223 104c-93-20-162-102-162-200 0-18 2-35 6-52l8 3c-3 12-5 23-5 35 11-8 30-14 47-17l14 6c-13 2-62 11-62 25 0 13 51 23 63 25-1-17-1-33 0-50l8 3c-1 16-1 32 1 48 17 3 37 5 59 7l1 8c-22-1-42-3-60-6 6 51 31 121 80 149l2 16z m-8-11c-51-31-76-99-82-155-19-4-48-10-63-21 5 84 64 155 145 176z" fill="#0737e4" fill-rule="nonzero" data-fill-palette-color="accent"></path></g></svg></g></svg></g><g></g></svg></g></svg></g><g><path d="M118.207 43.568A112.844 112.844 0 0 1 277.313 43.568L275.92 43.568A111.451 111.451 0 0 0 119.6 43.568L118.207 43.568M118.207 203.632A112.844 112.844 0 0 0 277.313 203.632L275.92 203.632A111.451 111.451 0 0 1 119.6 203.632L118.207 203.632" fill="#b2bbda" stroke="transparent" data-fill-palette-color="tertiary"></path></g></svg></g><defs></defs></svg><rect width="395.52" height="247.2" fill="none" stroke="none" visibility="hidden"></rect></g></svg></g></svg>